<svg width="40" height="40" viewBox="0 0 40 40" fill="none" xmlns="http://www.w3.org/2000/svg">
<path d="M14.4734 17.9052L14.4674 17.9103L11.8428 20.0971L14.4624 22.28C14.7612 22.5262 15.016 22.8207 15.2166 23.1508L20.6267 8.27306C20.7815 7.84693 21.0187 7.45548 21.3248 7.12107C21.6309 6.78665 21.9999 6.51581 22.4108 6.32403C22.8216 6.13225 23.2661 6.02327 23.7191 6.00334C24.1718 5.98341 24.624 6.05282 25.0499 6.20761L14.4734 17.9052ZM14.4734 17.9052L14.4793 17.9002C15.1744 17.3118 15.6087 16.4725 15.6877 15.5653C15.7667 14.6581 15.484 13.7564 14.9012 13.0567C14.3184 12.357 13.4826 11.916 12.5761 11.8297C11.6695 11.7435 10.7656 12.019 10.0613 12.5962L10.0549 12.6014L10.0486 12.6066L4.24241 17.4452C4.24232 17.4452 4.24223 17.4453 4.24214 17.4454C3.85341 17.7693 3.54065 18.1747 3.326 18.6328C3.11129 19.0911 3 19.591 3 20.0971C3 20.6032 3.11129 21.1031 3.326 21.5614C3.54065 22.0196 3.85342 22.425 4.24214 22.7489C4.24223 22.749 4.24232 22.7491 4.24241 22.7491L10.0438 27.5836C10.3899 27.875 10.7899 28.0956 11.2212 28.2327C11.6553 28.3707 12.1126 28.4214 12.5664 28.3819C12.8428 28.3578 13.1147 28.3006 13.3762 28.2118M14.4734 17.9052L13.3762 28.2118M13.3762 28.2118L12.8849 29.5629L12.8844 29.5643C12.5723 30.4245 12.6146 31.3733 13.0019 32.2023C13.3884 33.0297 14.087 33.6702 14.9447 33.9835C15.3243 34.1231 15.7257 34.1943 16.1302 34.194M13.3762 28.2118L27.1151 10.6314L26.6238 11.9825C26.8853 11.8937 27.1572 11.8365 27.4336 11.8124C27.8874 11.7729 28.3447 11.8236 28.7788 11.9616C29.2101 12.0987 29.6101 12.3192 29.9562 12.6106L35.7576 17.4452C35.7577 17.4452 35.7578 17.4453 35.7579 17.4454C36.1466 17.7693 36.4593 18.1747 36.674 18.6328C36.8887 19.0911 37 19.591 37 20.0971C37 20.6032 36.8887 21.1031 36.674 21.5614C36.4593 22.0196 36.1466 22.425 35.7579 22.7489C35.7578 22.749 35.7577 22.7491 35.7576 22.7491L29.9563 27.5835C29.6102 27.875 29.2101 28.0956 28.7788 28.2327C28.3447 28.3707 27.8874 28.4214 27.4336 28.3819C26.9797 28.3424 26.5381 28.2134 26.1344 28.0024C25.7306 27.7913 25.3726 27.5025 25.081 27.1524C24.7894 26.8023 24.57 26.398 24.4354 25.9628C24.3009 25.5275 24.2538 25.0699 24.297 24.6163C24.3401 24.1628 24.4726 23.7223 24.6869 23.3202C24.8996 22.921 25.1887 22.5675 25.5376 22.2799L28.1572 20.0971L25.5376 17.9144C25.2389 17.6681 24.984 17.3737 24.7834 17.0435L19.3732 31.9217C19.3732 31.9217 19.3731 31.9218 19.3731 31.9218C19.131 32.5878 18.6897 33.1631 18.1093 33.5696C17.5293 33.9758 16.8383 34.1938 16.1302 34.194M16.1302 34.194C16.1297 34.194 16.1292 34.194 16.1287 34.194L16.129 32.194L16.1317 34.194C16.1312 34.194 16.1307 34.194 16.1302 34.194ZM27.3196 9.30001C27.3395 9.75293 27.27 10.2053 27.1151 10.6314L27.3196 9.30001ZM27.3196 9.30001C27.2996 8.84707 27.1907 8.4025 26.9989 7.9917M27.3196 9.30001L26.9989 7.9917M26.9989 7.9917C26.8071 7.5809 26.5363 7.21189 26.2019 6.90577M26.9989 7.9917L26.2019 6.90577M26.2019 6.90577C25.8676 6.5998 25.4764 6.36265 25.0505 6.20784L26.2019 6.90577Z" fill="#82BC4F" stroke="#16181D" stroke-width="4"/>
</svg>
